<svg width="343" height="93" viewBox="0 0 343 93" fill="none" xmlns="http://www.w3.org/2000/svg">
<path d="M4.67927 8.43421C6.84409 8.43421 8.59903 6.71293 8.59903 4.58963C8.59903 2.46633 6.84409 0.745056 4.67927 0.745056C2.51445 0.745056 0.759521 2.46633 0.759521 4.58963C0.759521 6.71293 2.51445 8.43421 4.67927 8.43421Z" fill="#1B528A" stroke="#1B528A" stroke-miterlimit="10"/>
<path d="M31.3276 34.2883C33.979 34.2883 36.1285 32.18 36.1285 29.5794C36.1285 26.9788 33.979 24.8705 31.3276 24.8705C28.6761 24.8705 26.5266 26.9788 26.5266 29.5794C26.5266 32.18 28.6761 34.2883 31.3276 34.2883Z" fill="#1B528A" stroke="#1B528A" stroke-miterlimit="10"/>
<path d="M71.695 62.2881C74.3465 62.2881 76.4959 60.1799 76.4959 57.5792C76.4959 54.9786 74.3465 52.8704 71.695 52.8704C69.0435 52.8704 66.894 54.9786 66.894 57.5792C66.894 60.1799 69.0435 62.2881 71.695 62.2881Z" fill="#1B528A" stroke="#1B528A" stroke-miterlimit="10"/>
<path d="M89.5465 24.0211C90.7296 24.0211 91.6887 23.0804 91.6887 21.92C91.6887 20.7596 90.7296 19.8189 89.5465 19.8189C88.3634 19.8189 87.4043 20.7596 87.4043 21.92C87.4043 23.0804 88.3634 24.0211 89.5465 24.0211Z" fill="#1B528A" stroke="#1B528A" stroke-miterlimit="10"/>
<path d="M36.4172 92.24C39.4043 92.24 41.8259 89.8649 41.8259 86.9351C41.8259 84.0053 39.4043 81.6302 36.4172 81.6302C33.4301 81.6302 31.0085 84.0053 31.0085 86.9351C31.0085 89.8649 33.4301 92.24 36.4172 92.24Z" fill="#1B528A" stroke="#1B528A" stroke-miterlimit="10"/>
<path d="M35.156 82.9862L3.88916 7.62952" stroke="#1B528A" stroke-miterlimit="10"/>
<path d="M31.3276 34.2882L37.6631 81.7792" stroke="#1B528A" stroke-miterlimit="10"/>
<path d="M68.4437 61.0215L41.127 84.3572" stroke="#1B528A" stroke-miterlimit="10"/>
<path d="M74.8701 54.0774L88.8627 23.9019" stroke="#1B528A" stroke-miterlimit="10"/>
<path d="M36.0374 28.7151L87.4043 22.4267" stroke="#1B528A" stroke-miterlimit="10"/>
<path d="M7.67236 7.03345L27.7877 26.4202" stroke="#1B528A" stroke-miterlimit="10"/>
<path d="M8.53833 5.14099L87.5563 21.1601" stroke="#1B528A" stroke-miterlimit="10"/>
<path d="M103.646 43.542V18.895H111.895C113.394 18.8552 114.875 19.2323 116.164 19.9828C117.38 20.7424 118.342 21.8358 118.93 23.127C119.618 24.6662 119.955 26.3344 119.917 28.0147C119.948 29.656 119.611 31.284 118.93 32.7832C118.338 34.0757 117.377 35.1728 116.164 35.9423C114.876 36.698 113.396 37.0803 111.895 37.045H106.471L108.75 34.0647V43.542H103.646ZM108.75 34.8098L106.471 31.606H111.576C112.019 31.6366 112.464 31.5665 112.875 31.4011C113.286 31.2357 113.653 30.9794 113.946 30.6523C114.515 29.8902 114.794 28.9573 114.736 28.0147C114.797 27.0579 114.518 26.1099 113.946 25.3324C113.651 25.0032 113.282 24.7457 112.868 24.5802C112.454 24.4147 112.007 24.3457 111.561 24.3787H106.471L108.75 21.1749V34.8098Z" fill="#1B528A"/>
<path d="M131.752 44.0338C130.361 44.0417 128.989 43.7142 127.757 43.0801C126.509 42.4211 125.425 41.5001 124.581 40.3829C123.645 39.1578 122.935 37.7808 122.485 36.3148C121.474 32.9846 121.474 29.4375 122.485 26.1073C122.935 24.6413 123.645 23.2643 124.581 22.0392C125.428 20.9328 126.512 20.0222 127.757 19.3719C128.99 18.7423 130.362 18.4199 131.752 18.4331C133.143 18.4162 134.516 18.7388 135.748 19.3719C136.992 20.0302 138.072 20.9515 138.908 22.069C139.838 23.3004 140.552 24.6753 141.02 26.1371C142.034 29.472 142.034 33.0246 141.02 36.3595C140.558 37.824 139.844 39.1999 138.908 40.4276C138.071 41.5408 136.991 42.4571 135.748 43.1099C134.515 43.7372 133.142 44.0546 131.752 44.0338ZM131.752 38.252C132.434 38.2607 133.105 38.091 133.697 37.7603C134.314 37.3854 134.834 36.8753 135.216 36.2701C135.684 35.5862 136.033 34.8309 136.249 34.0349C136.733 32.1368 136.733 30.1512 136.249 28.2531C136.023 27.4842 135.674 26.755 135.216 26.0924C134.834 25.4872 134.314 24.9771 133.697 24.6023C133.11 24.2799 132.448 24.1106 131.775 24.1106C131.102 24.1106 130.44 24.2799 129.853 24.6023C129.236 24.9771 128.716 25.4872 128.334 26.0924C127.849 26.7694 127.48 27.5193 127.24 28.3127C126.756 30.2108 126.756 32.1964 127.24 34.0945C127.456 34.8905 127.805 35.6458 128.273 36.3297C128.655 36.9349 129.175 37.445 129.792 37.8199C130.395 38.1318 131.072 38.2809 131.752 38.252Z" fill="#1B528A"/>
<path d="M144.453 43.5421V18.895H152.703C154.203 18.8511 155.684 19.2285 156.972 19.9829C158.196 20.7374 159.164 21.8319 159.753 23.1271C160.436 24.6674 160.768 26.3355 160.725 28.0147C160.77 29.6653 160.437 31.3047 159.753 32.813C159.163 34.0957 158.194 35.1754 156.972 35.9125C155.68 36.6548 154.2 37.0265 152.703 36.9854H147.37L149.634 34.0051V43.4825L144.453 43.5421ZM149.558 34.8098L147.37 31.606H152.475C152.921 31.6356 153.367 31.5651 153.78 31.3998C154.194 31.2345 154.563 30.9789 154.86 30.6523C155.422 29.8869 155.701 28.9565 155.65 28.0147C155.704 27.0587 155.426 26.1132 154.86 25.3325C154.563 25.0059 154.194 24.7503 153.78 24.585C153.367 24.4197 152.921 24.3492 152.475 24.3788H147.37L149.634 21.175L149.558 34.8098ZM155.635 43.5421L151.077 34.6012H156.516L161.074 43.5421H155.635Z" fill="#1B528A"/>
<path d="M167.121 43.542V24.4235H161.576V18.895H177.756V24.4235H172.241V43.542H167.121Z" fill="#1B528A"/>
<path d="M176.586 43.542L184.547 18.895H189.576L197.507 43.542H192.204L186.021 22.3522H188.026L181.797 43.5867L176.586 43.542ZM180.947 38.7438L182.253 33.6028H191.08L192.387 38.7438H180.947Z" fill="#1B528A"/>
<path d="M199.026 43.542V18.895H204.131V38.0136H212.7V43.542H199.026Z" fill="#1B528A"/>
<path d="M230.582 44.0338C229.37 44.0853 228.165 43.8398 227.075 43.3194C225.984 42.7991 225.044 42.0202 224.337 41.0535C222.686 38.529 221.898 35.5535 222.089 32.5597V18.895H227.194V32.3063C227.07 33.8744 227.385 35.4459 228.105 36.8513C228.367 37.2755 228.738 37.6253 229.18 37.8657C229.623 38.1062 230.122 38.2291 230.627 38.2222C231.131 38.231 231.629 38.1088 232.069 37.868C232.509 37.6272 232.877 37.2764 233.134 36.8513C233.814 35.4449 234.102 33.8871 233.97 32.3361V18.9248H238.998V32.5746C239.189 35.5684 238.402 38.5439 236.75 41.0684C236.05 42.0226 235.121 42.7925 234.045 43.3099C232.969 43.8272 231.779 44.0758 230.582 44.0338Z" fill="#1B528A"/>
<path d="M239.956 43.542L247.932 18.895H252.961L260.952 43.542H255.635L249.39 22.3522H251.411L245.167 43.5867L239.956 43.542ZM244.316 38.7438L245.638 33.6028H254.45L255.771 38.7438H244.316Z" fill="#1B528A"/>
<path d="M271.238 44.0338C269.846 44.0417 268.474 43.7143 267.242 43.0801C265.994 42.4146 264.906 41.495 264.051 40.3829C263.121 39.1542 262.412 37.7783 261.955 36.3148C261.441 34.6637 261.19 32.9448 261.21 31.2185C261.189 29.4874 261.44 27.7633 261.955 26.1073C262.412 24.6439 263.121 23.268 264.051 22.0392C264.91 20.938 265.997 20.0287 267.242 19.3719C268.483 18.7552 269.854 18.4339 271.245 18.4339C272.636 18.4339 274.008 18.7552 275.248 19.3719C276.486 20.0335 277.563 20.9482 278.409 22.0541C279.345 23.2791 280.055 24.6561 280.505 26.1222C281.522 29.4618 281.522 33.02 280.505 36.3595C280.055 37.8257 279.345 39.2027 278.409 40.4276C277.568 41.5375 276.489 42.453 275.248 43.1099C274.009 43.7355 272.632 44.0528 271.238 44.0338ZM271.238 38.252C271.909 38.2555 272.569 38.0859 273.152 37.7603C273.769 37.3854 274.289 36.8754 274.671 36.2701C275.146 35.5902 275.496 34.8336 275.704 34.0349C275.97 33.0989 276.098 32.1304 276.084 31.1589C276.101 30.1774 275.973 29.1987 275.704 28.2531C275.49 27.4611 275.141 26.7104 274.671 26.0328C274.289 25.4276 273.769 24.9175 273.152 24.5427C272.569 24.2171 271.909 24.0475 271.238 24.0509C270.562 24.0497 269.898 24.219 269.308 24.5427C268.693 24.9204 268.174 25.4299 267.789 26.0328C267.319 26.7104 266.97 27.4611 266.756 28.2531C266.487 29.1987 266.359 30.1774 266.376 31.1589C266.362 32.1304 266.49 33.0989 266.756 34.0349C266.964 34.8336 267.314 35.5902 267.789 36.2701C268.174 36.873 268.693 37.3825 269.308 37.7603C269.898 38.0839 270.562 38.2533 271.238 38.252ZM277.148 49.4877C276.416 49.4994 275.687 49.3937 274.99 49.1748C274.276 48.9255 273.609 48.563 273.015 48.1019C272.276 47.5081 271.604 46.8387 271.01 46.1051C270.311 45.2557 269.49 44.2126 268.67 42.9609L274.018 41.1429C274.353 41.8492 274.739 42.5314 275.172 43.1844C275.44 43.5937 275.785 43.948 276.19 44.2275C276.502 44.4421 276.873 44.5567 277.254 44.5553C277.82 44.5114 278.366 44.3306 278.843 44.0289C279.321 43.7272 279.714 43.3142 279.989 42.8268L282.207 46.418C281.736 47.3393 281.014 48.1143 280.121 48.6564C279.227 49.1984 278.198 49.4863 277.148 49.4877Z" fill="#1B528A"/>
<path d="M106.092 59.6058C105.353 59.6073 104.623 59.4549 103.949 59.1588C103.325 58.9182 102.767 58.5351 102.324 58.0411L102.931 56.1785C103.34 56.5998 103.824 56.9433 104.36 57.1918C104.897 57.459 105.489 57.6018 106.092 57.609C106.509 57.626 106.924 57.5495 107.307 57.3855C107.6 57.2591 107.844 57.0452 108.006 56.7745C108.147 56.513 108.22 56.2212 108.219 55.9251C108.237 55.5793 108.124 55.2391 107.9 54.9714C107.682 54.7181 107.406 54.519 107.094 54.3903L105.985 53.9879C105.575 53.8687 105.165 53.7197 104.755 53.5558C104.356 53.3947 103.982 53.179 103.646 52.915C103.298 52.6216 103.023 52.2548 102.84 51.8421C102.608 51.3056 102.499 50.7257 102.521 50.1434C102.514 49.4746 102.659 48.8126 102.947 48.2062C103.22 47.6296 103.658 47.1431 104.208 46.8054C104.848 46.4072 105.591 46.1953 106.35 46.1945C106.934 46.1926 107.515 46.2884 108.067 46.4776C108.625 46.6664 109.141 46.9599 109.586 47.3419L109.009 49.1748C108.611 48.8511 108.166 48.5897 107.687 48.3999C107.264 48.2443 106.817 48.1636 106.365 48.1615C105.951 48.1442 105.539 48.2261 105.165 48.3999C104.887 48.544 104.656 48.7607 104.496 49.0258C104.352 49.3022 104.279 49.6092 104.284 49.9198C104.274 50.2644 104.387 50.6014 104.603 50.8735C104.819 51.1209 105.096 51.3105 105.408 51.4249C105.77 51.5776 106.14 51.7119 106.517 51.8272L107.748 52.2594C108.148 52.4168 108.522 52.6328 108.857 52.9001C109.208 53.1778 109.485 53.536 109.662 53.9432C109.885 54.4766 109.989 55.0509 109.966 55.6271C109.976 56.2898 109.836 56.9464 109.556 57.5494C109.28 58.1294 108.836 58.6167 108.279 58.9501C107.63 59.3716 106.87 59.5993 106.092 59.6058Z" fill="#1B528A"/>
<path d="M115.01 59.4866C114.247 59.4985 113.501 59.2685 112.883 58.831C112.257 58.3634 111.769 57.7411 111.47 57.0279C111.104 56.205 110.913 55.3178 110.908 54.4201C110.892 53.523 111.057 52.6317 111.394 51.7975C111.673 51.0972 112.133 50.4807 112.731 50.0093C113.292 49.5854 113.982 49.3596 114.691 49.3685C115.377 49.3606 116.047 49.5812 116.59 49.9944C117.185 50.4581 117.642 51.0707 117.911 51.7677C118.287 52.62 118.488 53.5364 118.504 54.4648V54.8076C118.504 54.9268 118.504 55.046 118.504 55.1503H112.427V53.6453H117.623L116.954 54.137C116.968 53.6285 116.881 53.1222 116.696 52.6469C116.539 52.2528 116.283 51.9042 115.952 51.6336C115.637 51.3931 115.249 51.2625 114.85 51.2625C114.451 51.2625 114.063 51.3931 113.749 51.6336C113.414 51.9044 113.162 52.26 113.019 52.6618C112.833 53.1371 112.74 53.6427 112.746 54.1519V54.5244C112.738 55.0656 112.842 55.6028 113.05 56.104C113.225 56.525 113.52 56.8873 113.901 57.1471C114.269 57.4009 114.711 57.5315 115.162 57.5196C115.546 57.5225 115.927 57.4357 116.271 57.2663C116.623 57.0661 116.92 56.7848 117.137 56.4467L118.063 57.9369C117.756 58.4301 117.328 58.84 116.818 59.129C116.261 59.4129 115.635 59.5369 115.01 59.4866Z" fill="#1B528A"/>
<path d="M123.442 59.4866C122.704 59.4909 121.984 59.2609 121.391 58.8309C120.786 58.3539 120.315 57.7333 120.023 57.0279C119.678 56.2007 119.508 55.3136 119.522 54.4201C119.503 53.5214 119.674 52.6286 120.023 51.7974C120.318 51.0899 120.801 50.4726 121.421 50.0093C122.016 49.5837 122.736 49.3588 123.472 49.3685C124.147 49.3577 124.808 49.5616 125.356 49.9497C125.938 50.3847 126.372 50.9821 126.602 51.6633L125.28 52.6915C125.109 52.285 124.831 51.9303 124.475 51.6633C124.183 51.4431 123.825 51.3227 123.457 51.3206C123.047 51.3257 122.649 51.4559 122.317 51.6931C121.96 51.9737 121.686 52.3447 121.527 52.766C121.143 53.8365 121.143 55.0037 121.527 56.0742C121.687 56.4912 121.96 56.8572 122.317 57.1322C122.645 57.3759 123.046 57.5069 123.457 57.5047C123.824 57.508 124.181 57.3927 124.475 57.1769C124.835 56.9074 125.113 56.5468 125.28 56.1338L126.602 57.1769C126.36 57.8521 125.928 58.4463 125.356 58.8905C124.802 59.2901 124.129 59.4996 123.442 59.4866Z" fill="#1B528A"/>
<path d="M128.045 59.3525V49.4728H129.671V52.1551L129.488 51.3504C129.668 50.761 130.029 50.2405 130.522 49.8603C131.036 49.5057 131.656 49.3276 132.284 49.3536V51.559H132.071H131.874C131.576 51.5533 131.282 51.6197 131.017 51.7523C130.752 51.8849 130.524 52.0795 130.354 52.319C129.919 53.0047 129.717 53.8082 129.777 54.6138V59.3972L128.045 59.3525Z" fill="#1B528A"/>
<path d="M137.1 59.4866C136.337 59.5028 135.59 59.2724 134.973 58.831C134.348 58.3634 133.86 57.7411 133.56 57.0279C133.215 56.2008 133.045 55.3137 133.059 54.4201C133.043 53.523 133.208 52.6317 133.545 51.7975C133.824 51.0972 134.285 50.4807 134.882 50.0093C135.443 49.5854 136.134 49.3596 136.842 49.3685C137.529 49.3606 138.198 49.5812 138.741 49.9944C139.332 50.4589 139.783 51.0717 140.048 51.7677C140.387 52.6272 140.552 53.5433 140.534 54.4648C140.541 54.579 140.541 54.6934 140.534 54.8076C140.542 54.9217 140.542 55.0362 140.534 55.1503H134.457V53.6453H139.653L138.969 54.137C138.991 53.628 138.903 53.1202 138.711 52.6469C138.559 52.2502 138.302 51.9004 137.966 51.6336C137.665 51.3841 137.281 51.2516 136.887 51.261C136.484 51.2524 136.091 51.3845 135.778 51.6336C135.439 51.903 135.181 52.2587 135.034 52.6618C134.86 53.1399 134.772 53.6442 134.776 54.1519V54.5244C134.76 55.0662 134.864 55.6049 135.08 56.104C135.249 56.5282 135.546 56.8919 135.93 57.1471C136.294 57.3988 136.731 57.5294 137.176 57.5196C137.561 57.5243 137.942 57.4373 138.285 57.2663C138.642 57.0671 138.945 56.7859 139.166 56.4467L140.078 57.9369C139.78 58.4324 139.356 58.8433 138.847 59.129C138.309 59.402 137.705 59.5257 137.1 59.4866Z" fill="#1B528A"/>
<path d="M141.202 51.3951V49.5474H146.079V51.3951H141.202ZM144.924 59.4866C144.568 59.5039 144.213 59.4356 143.89 59.2875C143.567 59.1395 143.286 58.9163 143.071 58.6373C142.575 57.9023 142.34 57.0277 142.402 56.1487V47.2972H144.119V56.104C144.096 56.4854 144.192 56.8646 144.393 57.1918C144.472 57.3142 144.582 57.4144 144.713 57.4823C144.843 57.5502 144.989 57.5836 145.137 57.5793C145.317 57.5829 145.495 57.5489 145.66 57.4795C145.825 57.4101 145.973 57.307 146.094 57.1769L146.565 58.8161C146.366 59.0386 146.116 59.2121 145.836 59.3227C145.544 59.4299 145.236 59.4854 144.924 59.4866Z" fill="#1B528A"/>
<path d="M150.181 59.4866C149.677 59.4953 149.181 59.3608 148.753 59.0992C148.337 58.8501 148.005 58.4876 147.796 58.0561C147.573 57.59 147.458 57.0809 147.462 56.566C147.45 56.0549 147.548 55.5471 147.75 55.0758C147.945 54.6267 148.287 54.2544 148.723 54.0178C149.269 53.7357 149.884 53.6068 150.5 53.6453H152.627V55.1354H150.622C150.411 55.107 150.196 55.1258 149.993 55.1903C149.791 55.2548 149.606 55.3634 149.452 55.508C149.245 55.7781 149.138 56.1091 149.148 56.4467C149.13 56.8138 149.261 57.1729 149.513 57.4451C149.649 57.5748 149.811 57.675 149.989 57.7392C150.167 57.8034 150.357 57.8301 150.546 57.8177C150.954 57.8169 151.351 57.6803 151.67 57.4302C152.028 57.1334 152.279 56.7308 152.384 56.2828L152.673 57.6687C152.543 58.2052 152.233 58.6831 151.792 59.0247C151.322 59.3491 150.755 59.5116 150.181 59.4866ZM152.49 59.3525V57.3557L152.384 56.9385V53.4366C152.421 52.8745 152.26 52.3168 151.928 51.8571C151.763 51.6621 151.553 51.5088 151.315 51.4103C151.077 51.3117 150.818 51.2707 150.561 51.2908C150.143 51.2943 149.729 51.3805 149.346 51.5442C148.961 51.7129 148.619 51.9621 148.343 52.2743L147.674 50.665C148.066 50.2543 148.55 49.9382 149.087 49.7411C149.625 49.5381 150.197 49.4369 150.774 49.4431C151.237 49.4189 151.699 49.499 152.126 49.6772C152.552 49.8554 152.932 50.127 153.235 50.4713C153.885 51.4011 154.191 52.5213 154.101 53.6453V59.427L152.49 59.3525Z" fill="#1B528A"/>
<path d="M156.289 59.3525V49.4728H158.005V52.1551L157.808 51.3504C157.987 50.761 158.348 50.2405 158.841 49.8603C159.356 49.5057 159.975 49.3276 160.603 49.3536V51.559H160.391H160.208C159.911 51.5546 159.617 51.6216 159.352 51.754C159.088 51.8865 158.86 52.0805 158.689 52.319C158.26 53.0075 158.059 53.8089 158.112 54.6138V59.3972L156.289 59.3525Z" fill="#1B528A"/>
<path d="M162.837 47.8485C162.68 47.8489 162.526 47.811 162.388 47.7381C162.25 47.6653 162.133 47.5598 162.047 47.4313C161.843 47.1485 161.736 46.8091 161.743 46.4627C161.732 46.1065 161.839 45.7563 162.047 45.4643C162.136 45.3413 162.255 45.2417 162.393 45.1741C162.53 45.1066 162.683 45.0732 162.837 45.0769C162.989 45.074 163.14 45.1062 163.277 45.1709C163.414 45.2356 163.534 45.331 163.627 45.4494C163.837 45.7235 163.944 46.0604 163.931 46.4031C163.946 46.7691 163.839 47.1301 163.627 47.4313C163.544 47.5628 163.428 47.6706 163.289 47.7439C163.15 47.8171 162.994 47.8532 162.837 47.8485ZM161.971 59.3525V49.4728H163.688V59.3525H161.971Z" fill="#1B528A"/>
<path d="M168.139 59.4866C167.605 59.5094 167.075 59.3745 166.62 59.0991C166.205 58.8534 165.877 58.4895 165.678 58.056C165.455 57.5899 165.341 57.0808 165.344 56.5659C165.332 56.0548 165.43 55.547 165.632 55.0758C165.826 54.6308 166.162 54.2595 166.59 54.0177C167.14 53.7321 167.76 53.5982 168.382 53.6303H170.494V55.1205H168.641C168.427 55.097 168.212 55.1181 168.007 55.1823C167.803 55.2465 167.615 55.3524 167.456 55.493C167.249 55.7631 167.142 56.0941 167.152 56.4318C167.139 56.8007 167.276 57.1595 167.531 57.4302C167.665 57.5595 167.824 57.6595 168 57.7238C168.175 57.788 168.362 57.8149 168.549 57.8027C168.963 57.8041 169.365 57.6675 169.689 57.4153C170.042 57.1144 170.292 56.7135 170.403 56.2679L170.692 57.6537C170.556 58.1876 170.246 58.6636 169.81 59.0097C169.326 59.3524 168.736 59.5208 168.139 59.4866ZM170.433 59.3525V57.3557L170.342 56.9384V53.4366C170.379 52.8744 170.218 52.3168 169.886 51.857C169.721 51.662 169.511 51.5088 169.273 51.4102C169.035 51.3116 168.777 51.2707 168.519 51.2908C168.101 51.2943 167.687 51.3805 167.304 51.5441C166.919 51.7128 166.577 51.962 166.301 52.2743L165.602 50.6649C165.991 50.2582 166.469 49.9424 167 49.741C167.542 49.5361 168.12 49.435 168.701 49.443C169.162 49.4211 169.621 49.5023 170.045 49.6805C170.469 49.8586 170.846 50.129 171.147 50.4712C171.811 51.3954 172.123 52.5187 172.029 53.6452V59.427L170.433 59.3525Z" fill="#1B528A"/>
<path d="M176.829 59.3525L181.144 46.4031H182.891L187.221 59.3525H185.353L181.645 47.6847H182.314L178.622 59.3525H176.829ZM178.82 56.3722L179.291 54.4797H184.471L184.958 56.3722H178.82Z" fill="#1B528A"/>
<path d="M191.566 59.4866C190.829 59.4909 190.109 59.2609 189.515 58.8309C188.899 58.3576 188.418 57.7366 188.118 57.0279C187.773 56.2007 187.602 55.3136 187.616 54.4201C187.598 53.5214 187.769 52.6286 188.118 51.7974C188.413 51.0899 188.895 50.4726 189.515 50.0093C190.11 49.5837 190.83 49.3588 191.566 49.3685C192.242 49.3577 192.903 49.5616 193.45 49.9497C194.032 50.3815 194.462 50.9805 194.681 51.6633L193.374 52.6915C193.198 52.2881 192.921 51.9346 192.569 51.6633C192.277 51.4431 191.92 51.3227 191.551 51.3206C191.14 51.3206 190.741 51.4513 190.412 51.6931C190.054 51.9738 189.781 52.3447 189.622 52.766C189.237 53.8365 189.237 55.0037 189.622 56.0742C189.781 56.4912 190.055 56.8572 190.412 57.1322C190.737 57.3801 191.139 57.5115 191.551 57.5047C191.918 57.508 192.276 57.3928 192.569 57.1769C192.925 56.9034 193.203 56.5439 193.374 56.1338L194.681 57.1769C194.45 57.8534 194.022 58.449 193.45 58.8905C192.905 59.2839 192.244 59.4931 191.566 59.4866Z" fill="#1B528A"/>
<path d="M198.373 59.4866C197.864 59.4948 197.363 59.3604 196.929 59.0991C196.524 58.8692 196.196 58.5271 195.987 58.1157C195.76 57.6506 195.64 57.1415 195.638 56.6255C195.631 56.1133 195.735 55.6055 195.942 55.1354C196.136 54.6904 196.472 54.3191 196.899 54.0774C197.45 53.7917 198.069 53.6578 198.692 53.6899H200.804V55.1801H198.813C198.6 55.1566 198.384 55.1777 198.18 55.2419C197.976 55.3061 197.788 55.412 197.628 55.5526C197.421 55.8227 197.314 56.1537 197.324 56.4914C197.315 56.6744 197.344 56.8575 197.409 57.0292C197.474 57.2009 197.575 57.3577 197.704 57.4898C197.837 57.6191 197.997 57.7192 198.172 57.7834C198.348 57.8476 198.535 57.8745 198.722 57.8623C199.136 57.8637 199.538 57.7271 199.862 57.4749C200.215 57.174 200.464 56.7731 200.576 56.3275L200.864 57.7133C200.729 58.2472 200.419 58.7232 199.983 59.0693C199.507 59.376 198.941 59.5224 198.373 59.4866ZM200.667 59.3525V57.3557L200.576 56.9384V53.4366C200.613 52.8744 200.452 52.3168 200.12 51.857C199.955 51.662 199.745 51.5088 199.507 51.4102C199.269 51.3116 199.01 51.2707 198.753 51.2908C198.334 51.2943 197.921 51.3805 197.537 51.5441C197.153 51.7128 196.81 51.962 196.534 52.2743L195.866 50.6649C196.255 50.2582 196.733 49.9424 197.264 49.741C197.806 49.5361 198.384 49.435 198.965 49.443C199.426 49.4211 199.885 49.5023 200.309 49.6805C200.733 49.8586 201.11 50.129 201.411 50.4712C202.075 51.3954 202.387 52.5187 202.292 53.6452V59.427L200.667 59.3525Z" fill="#1B528A"/>
<path d="M207.58 59.4866C206.896 59.4869 206.232 59.2612 205.696 58.8458C205.1 58.3822 204.644 57.7695 204.374 57.0726C203.726 55.3562 203.726 53.4691 204.374 51.7527C204.644 51.0597 205.1 50.4518 205.696 49.9944C206.234 49.5843 206.898 49.3639 207.58 49.3685C208.177 49.3608 208.76 49.5496 209.236 49.905C209.762 50.3444 210.156 50.9163 210.375 51.559C210.689 52.4804 210.833 53.4492 210.801 54.4201C210.829 55.3799 210.69 56.3373 210.39 57.2514C210.18 57.907 209.785 58.4908 209.251 58.9352C208.773 59.2991 208.184 59.4934 207.58 59.4866ZM207.792 57.5047C208.195 57.5095 208.587 57.3779 208.901 57.1322C209.253 56.8491 209.521 56.4786 209.676 56.0593C210.061 54.9939 210.061 53.8314 209.676 52.766C209.517 52.3487 209.25 51.9791 208.901 51.6931C208.584 51.4515 208.194 51.3203 207.792 51.3203C207.391 51.3203 207 51.4515 206.683 51.6931C206.335 51.9791 206.068 52.3487 205.908 52.766C205.524 53.8314 205.524 54.9939 205.908 56.0593C206.064 56.4786 206.332 56.8491 206.683 57.1322C206.998 57.3779 207.39 57.5095 207.792 57.5047ZM210.011 59.3525V57.0278V54.3903L209.874 51.7676V45.6282H211.575V59.3525H210.011Z" fill="#1B528A"/>
<path d="M217.334 59.4866C216.571 59.4985 215.825 59.2685 215.207 58.831C214.581 58.3634 214.093 57.7411 213.794 57.0279C213.449 56.2008 213.278 55.3137 213.292 54.4201C213.277 53.523 213.442 52.6317 213.778 51.7975C214.063 51.0961 214.529 50.4798 215.131 50.0093C215.684 49.581 216.371 49.3545 217.075 49.3685C217.762 49.3606 218.432 49.5812 218.974 49.9944C219.57 50.458 220.026 51.0707 220.296 51.7677C220.63 52.6282 220.79 53.5443 220.767 54.4648V54.8076C220.767 54.9268 220.767 55.046 220.767 55.1503H214.69V53.6452H219.886L219.217 54.137C219.232 53.6285 219.144 53.1222 218.959 52.6468C218.802 52.2528 218.546 51.9042 218.215 51.6336C217.9 51.3931 217.512 51.2625 217.113 51.2625C216.714 51.2625 216.327 51.3931 216.012 51.6336C215.682 51.9083 215.43 52.2627 215.283 52.6617C215.096 53.1371 215.004 53.6427 215.009 54.1519V54.5244C215.001 55.0656 215.105 55.6028 215.313 56.104C215.488 56.525 215.783 56.8872 216.164 57.1471C216.533 57.399 216.975 57.5294 217.425 57.5196C217.81 57.5225 218.19 57.4357 218.534 57.2663C218.886 57.0661 219.183 56.7848 219.4 56.4467L220.327 57.9369C220.019 58.4301 219.591 58.84 219.081 59.129C218.543 59.4035 217.938 59.5272 217.334 59.4866ZM215.814 48.1168L217.653 45.5836H219.673L217.288 48.1168H215.814Z" fill="#1B528A"/>
<path d="M231.645 49.3685C232.188 49.3649 232.719 49.5263 233.164 49.8305C233.669 50.2064 234.04 50.7274 234.228 51.3206C234.51 52.1047 234.638 52.9337 234.608 53.7645V59.427H232.906V54.0625C232.95 53.3859 232.802 52.7105 232.481 52.1104C232.355 51.9025 232.174 51.7317 231.957 51.6163C231.741 51.5009 231.496 51.4451 231.25 51.4547C230.892 51.4464 230.542 51.5625 230.263 51.7826C229.948 52.0403 229.716 52.3819 229.594 52.7661C229.414 53.299 229.331 53.859 229.351 54.4201V59.427H227.649V54.0625C227.693 53.3859 227.546 52.7105 227.224 52.1104C227.098 51.9025 226.917 51.7317 226.701 51.6163C226.484 51.5009 226.24 51.4451 225.993 51.4547C225.635 51.4464 225.285 51.5625 225.006 51.7826C224.691 52.0403 224.459 52.3819 224.337 52.7661C224.157 53.299 224.075 53.859 224.094 54.4201V59.427H222.377V49.4729H224.018V52.1551L223.73 51.3802C223.928 50.7885 224.304 50.2692 224.808 49.8901C225.251 49.5771 225.782 49.4054 226.328 49.3984C226.658 49.3912 226.986 49.448 227.294 49.5657C227.601 49.6833 227.882 49.8594 228.12 50.0838C228.678 50.647 229.031 51.3751 229.123 52.1551L228.455 51.8422C228.665 51.1463 229.077 50.5252 229.64 50.054C230.197 49.5878 230.913 49.3432 231.645 49.3685Z" fill="#1B528A"/>
<path d="M237.692 47.8486C237.535 47.8489 237.381 47.811 237.243 47.7381C237.105 47.6653 236.988 47.5598 236.902 47.4313C236.698 47.1485 236.591 46.8091 236.598 46.4627C236.587 46.1065 236.693 45.7563 236.902 45.4643C236.996 45.3572 237.113 45.2712 237.244 45.2123C237.375 45.1533 237.517 45.1228 237.661 45.1228C237.806 45.1228 237.948 45.1533 238.079 45.2123C238.21 45.2712 238.327 45.3572 238.421 45.4643C238.631 45.7385 238.739 46.0753 238.725 46.418C238.74 46.784 238.634 47.145 238.421 47.4462C238.342 47.5664 238.234 47.6659 238.107 47.736C237.98 47.8061 237.838 47.8447 237.692 47.8486ZM236.826 59.3525V49.4728H238.527V59.3525H236.826Z" fill="#1B528A"/>
<path d="M244.149 59.4866C243.41 59.4953 242.689 59.2648 242.098 58.831C241.482 58.3576 241.001 57.7366 240.7 57.0279C240.343 56.204 240.167 55.3154 240.184 54.4201C240.162 53.5197 240.338 52.6253 240.7 51.7975C240.995 51.09 241.478 50.4726 242.098 50.0093C242.691 49.5797 243.412 49.3545 244.149 49.3685C244.824 49.3578 245.485 49.5616 246.033 49.9497C246.61 50.3863 247.039 50.9836 247.263 51.6634L245.957 52.6916C245.78 52.2881 245.504 51.9346 245.152 51.6634C244.859 51.4451 244.502 51.3249 244.134 51.3206C243.723 51.3206 243.323 51.4513 242.994 51.6932C242.632 51.9694 242.358 52.3417 242.204 52.7661C241.82 53.8365 241.82 55.0037 242.204 56.0742C242.358 56.4943 242.632 56.8618 242.994 57.1322C243.32 57.3801 243.722 57.5115 244.134 57.5047C244.5 57.5058 244.857 57.3908 245.152 57.1769C245.508 56.9034 245.785 56.544 245.957 56.1338L247.263 57.1769C247.027 57.8507 246.6 58.4449 246.033 58.8906C245.487 59.2839 244.826 59.4931 244.149 59.4866Z" fill="#1B528A"/>
<path d="M250.955 59.4866C250.421 59.5095 249.891 59.3745 249.436 59.0992C249.02 58.8501 248.688 58.4876 248.479 58.0561C248.275 57.5848 248.17 57.078 248.17 56.5659C248.17 56.0539 248.275 55.5471 248.479 55.0758C248.673 54.6308 249.008 54.2595 249.436 54.0178C249.982 53.7334 250.596 53.5995 251.213 53.6304H253.34V55.1205H251.335C251.124 55.0921 250.909 55.1109 250.707 55.1754C250.504 55.2399 250.319 55.3485 250.165 55.493C249.958 55.7632 249.851 56.0942 249.861 56.4318C249.843 56.7989 249.974 57.158 250.226 57.4302C250.363 57.5584 250.525 57.6576 250.703 57.7217C250.881 57.7858 251.07 57.8134 251.259 57.8028C251.668 57.8043 252.065 57.6675 252.383 57.4153C252.741 57.1159 252.996 56.7151 253.113 56.2679L253.401 57.6538C253.259 58.1851 252.951 58.6594 252.52 59.0098C252.064 59.3282 251.515 59.4953 250.955 59.4866ZM253.249 59.3525V57.3557L253.158 56.9385V53.4366C253.195 52.8745 253.034 52.3168 252.702 51.8571C252.537 51.6621 252.327 51.5088 252.089 51.4103C251.851 51.3117 251.592 51.2707 251.335 51.2908C250.917 51.2943 250.503 51.3805 250.12 51.5442C249.735 51.7129 249.393 51.9621 249.117 52.2743L248.448 50.665C248.835 50.255 249.313 49.9387 249.846 49.7411C250.384 49.5381 250.956 49.4369 251.532 49.4431C251.995 49.4189 252.458 49.499 252.885 49.6772C253.311 49.8554 253.691 50.127 253.994 50.4713C254.644 51.4011 254.949 52.5213 254.86 53.6453V59.427L253.249 59.3525Z" fill="#1B528A"/>
<path d="M103.098 76.5786V63.5547H107.216C108.179 63.5309 109.124 63.8189 109.905 64.3743C110.708 64.9527 111.333 65.7362 111.713 66.6393C112.584 68.8392 112.584 71.2792 111.713 73.4791C111.333 74.3865 110.708 75.1749 109.905 75.759C109.124 76.3144 108.179 76.6024 107.216 76.5786H103.098ZM104.83 74.5073H107.124C107.782 74.5235 108.427 74.33 108.963 73.9559C109.49 73.5723 109.905 73.058 110.163 72.4658C110.73 70.9506 110.73 69.287 110.163 67.7718C109.903 67.1807 109.489 66.6669 108.963 66.2817C108.453 65.8519 107.811 65.6004 107.14 65.5664H104.83V74.5073Z" fill="#1B528A"/>
<path d="M114.903 65.0002C114.75 65.0024 114.599 64.9667 114.463 64.8964C114.328 64.826 114.213 64.7234 114.128 64.5978C113.931 64.3036 113.826 63.9591 113.826 63.6069C113.826 63.2547 113.931 62.9102 114.128 62.6159C114.213 62.4904 114.328 62.3877 114.463 62.3174C114.599 62.2471 114.75 62.2114 114.903 62.2136C115.055 62.2124 115.204 62.2469 115.339 62.3144C115.474 62.3818 115.59 62.4801 115.678 62.601C115.888 62.8752 115.996 63.212 115.982 63.5547C115.995 63.9205 115.889 64.2808 115.678 64.5829C115.597 64.7122 115.483 64.8186 115.347 64.8917C115.211 64.9649 115.058 65.0022 114.903 65.0002ZM114.052 76.5786V66.6393H115.739V76.5786H114.052Z" fill="#1B528A"/>
<path d="M117.942 76.5786V66.6393H119.537V69.3812L119.355 68.5467C119.523 67.9562 119.88 67.4341 120.373 67.0565C120.871 66.6903 121.483 66.5058 122.105 66.535V68.7404H121.892H121.71C121.412 68.7334 121.117 68.7991 120.852 68.9318C120.587 69.0645 120.359 69.2599 120.19 69.5004C119.766 70.1955 119.57 71.0018 119.628 71.8101V76.6233L117.942 76.5786Z" fill="#1B528A"/>
<path d="M126.83 76.6978C126.075 76.7038 125.34 76.4567 124.748 75.9974C124.123 75.5327 123.64 74.9091 123.35 74.1943C123.018 73.3589 122.853 72.4684 122.864 71.5717C122.849 70.6697 123.014 69.7736 123.35 68.9341C123.628 68.2367 124.077 67.6174 124.657 67.131C125.206 66.7061 125.887 66.4797 126.587 66.4903C127.263 66.489 127.921 66.7093 128.455 67.1161C129.037 67.5916 129.482 68.2081 129.747 68.9043C130.074 69.7718 130.234 70.6915 130.218 71.6164C130.225 71.7305 130.225 71.845 130.218 71.9591C130.218 72.0783 130.218 72.1975 130.218 72.3019H124.201V70.8117H129.291L128.638 71.2886C128.658 70.7796 128.57 70.2721 128.379 69.7984C128.227 69.4057 127.976 69.0571 127.65 68.7851C127.353 68.5391 126.975 68.4068 126.587 68.4126C126.188 68.4036 125.8 68.5359 125.493 68.7851C125.163 69.0599 124.911 69.4143 124.763 69.8133C124.59 70.2916 124.503 70.7958 124.505 71.3035V71.676C124.497 72.2172 124.601 72.7543 124.809 73.2555C124.973 73.6823 125.264 74.0508 125.645 74.3135C126.002 74.5671 126.434 74.698 126.875 74.6861C127.255 74.6907 127.631 74.6037 127.969 74.4328C128.317 74.2316 128.609 73.9503 128.82 73.6132L129.731 75.1033C129.44 75.5983 129.021 76.0093 128.516 76.2954C128.001 76.5756 127.418 76.7145 126.83 76.6978Z" fill="#1B528A"/>
<path d="M135.125 76.6978C134.39 76.6986 133.676 76.4513 133.104 75.9974C132.5 75.5204 132.029 74.8997 131.737 74.1943C131.392 73.362 131.222 72.47 131.236 71.5717C131.217 70.6681 131.388 69.7705 131.737 68.9341C132.029 68.2287 132.5 67.6081 133.104 67.131C133.687 66.7037 134.398 66.4783 135.125 66.4903C135.791 66.4795 136.442 66.6836 136.979 67.0714C137.582 67.5179 138.028 68.1378 138.255 68.8447L136.963 69.8729C136.792 69.4705 136.521 69.1168 136.173 68.8447C135.887 68.6246 135.534 68.504 135.171 68.502C134.764 68.4974 134.367 68.6287 134.046 68.8745C133.701 69.1635 133.435 69.5323 133.272 69.9474C132.907 71.0262 132.907 72.1917 133.272 73.2704C133.435 73.6856 133.701 74.0543 134.046 74.3433C134.367 74.5891 134.764 74.7205 135.171 74.7159C135.532 74.7117 135.882 74.5971 136.173 74.388C136.521 74.11 136.792 73.7515 136.963 73.3449L138.255 74.388C138.024 75.0608 137.602 75.6552 137.039 76.1017C136.492 76.5141 135.815 76.725 135.125 76.6978Z" fill="#1B528A"/>
<path d="M142.813 76.6978C142.087 76.693 141.385 76.446 140.822 75.9974C140.207 75.5271 139.73 74.9048 139.44 74.1943C139.095 73.362 138.924 72.4701 138.938 71.5717C138.92 70.6681 139.091 69.7705 139.44 68.9341C139.736 68.227 140.212 67.6063 140.822 67.131C141.402 66.7249 142.101 66.5156 142.813 66.535C143.479 66.5242 144.13 66.7284 144.666 67.1162C145.228 67.5636 145.641 68.1656 145.851 68.8447L144.56 69.8729C144.394 69.4674 144.121 69.1125 143.77 68.8447C143.49 68.6497 143.155 68.5455 142.813 68.5467C142.41 68.5419 142.018 68.6735 141.703 68.9192C141.349 69.1997 141.081 69.5711 140.929 69.9921C140.544 71.0677 140.544 72.2396 140.929 73.3152C141.081 73.7362 141.349 74.1076 141.703 74.3881C142.018 74.6338 142.41 74.7654 142.813 74.7606C143.173 74.7565 143.524 74.6419 143.815 74.4328C144.167 74.1588 144.44 73.7992 144.605 73.3897L145.897 74.4328C145.666 75.1056 145.244 75.6999 144.681 76.1464C144.14 76.533 143.481 76.7275 142.813 76.6978Z" fill="#1B528A"/>
<path d="M148.13 65.0002C147.978 64.9985 147.828 64.9611 147.693 64.8911C147.558 64.8211 147.443 64.7206 147.355 64.5978C147.154 64.299 147.048 63.948 147.05 63.5897C147.053 63.2314 147.165 62.882 147.371 62.5861C147.458 62.4634 147.573 62.3628 147.708 62.2928C147.843 62.2228 147.993 62.1854 148.145 62.1838C148.293 62.1889 148.437 62.228 148.567 62.2979C148.696 62.3678 148.807 62.4665 148.89 62.5861C149.1 62.8602 149.207 63.1971 149.194 63.5398C149.211 63.9039 149.11 64.2641 148.905 64.568C148.824 64.6991 148.711 64.8076 148.575 64.8833C148.439 64.959 148.286 64.9992 148.13 65.0002ZM147.279 76.5786V66.6393H148.966V76.5786H147.279Z" fill="#1B528A"/>
<path d="M154.405 76.6978C153.693 76.711 153 76.479 152.445 76.0421C151.84 75.5651 151.369 74.9444 151.077 74.239C150.732 73.4067 150.562 72.5147 150.576 71.6164C150.558 70.7128 150.728 69.8152 151.077 68.9788C151.369 68.2734 151.84 67.6528 152.445 67.1757C153.002 66.7442 153.695 66.5175 154.405 66.535C155.118 66.5226 155.815 66.7486 156.38 67.1757C156.983 67.6486 157.453 68.2639 157.747 68.9639C158.395 70.6649 158.395 72.538 157.747 74.239C157.463 74.9485 156.991 75.5709 156.38 76.0421C155.821 76.4823 155.121 76.7146 154.405 76.6978ZM154.405 74.7159C154.803 74.7222 155.19 74.5903 155.499 74.3433C155.848 74.0583 156.115 73.6884 156.273 73.2704C156.465 72.7396 156.558 72.1794 156.547 71.6164C156.561 71.0483 156.469 70.4824 156.273 69.9474C156.115 69.5295 155.848 69.1595 155.499 68.8745C155.19 68.634 154.807 68.503 154.412 68.503C154.018 68.503 153.635 68.634 153.326 68.8745C152.981 69.1604 152.719 69.5305 152.566 69.9474C152.358 70.4794 152.26 71.0468 152.278 71.6164C152.264 72.1809 152.362 72.7426 152.566 73.2704C152.719 73.6874 152.981 74.0575 153.326 74.3433C153.628 74.5904 154.011 74.7226 154.405 74.7159ZM153.265 65.2833L155.073 62.7351H157.048L154.709 65.2833H153.265Z" fill="#1B528A"/>
<path d="M163.931 66.535C164.474 66.5284 165.006 66.6901 165.45 66.997C165.951 67.3786 166.327 67.897 166.529 68.4871C166.811 69.2761 166.94 70.1102 166.908 70.9458V76.6382H165.237V71.1843C165.286 70.4989 165.128 69.8146 164.781 69.2173C164.65 69.008 164.463 68.837 164.242 68.7218C164.02 68.6066 163.771 68.5513 163.52 68.5616C163.144 68.554 162.775 68.6693 162.472 68.8894C162.143 69.1465 161.9 69.4942 161.773 69.8878C161.589 70.4251 161.501 70.99 161.515 71.5568V76.5786H159.829V66.6393H161.439V69.3216L161.15 68.502C161.365 67.9144 161.744 67.3979 162.244 67.0119C162.739 66.6775 163.331 66.5101 163.931 66.535Z" fill="#1B528A"/>
<path d="M175.827 76.6978C175.138 76.6903 174.476 76.4419 173.958 75.9974C173.372 75.532 172.925 74.9191 172.666 74.2242C172.038 72.4942 172.038 70.6045 172.666 68.8745C172.93 68.182 173.375 67.5702 173.958 67.1013C174.492 66.6944 175.15 66.4742 175.827 66.4754C176.413 66.4689 176.982 66.664 177.437 67.0268C177.965 67.4617 178.355 68.0356 178.561 68.6808C178.876 69.607 179.02 70.581 178.987 71.5568C179.015 72.5214 178.876 73.4838 178.576 74.403C178.371 75.0531 177.987 75.6355 177.467 76.0868C177.01 76.4721 176.429 76.6883 175.827 76.6978ZM176.024 74.7159C176.417 74.72 176.799 74.5881 177.103 74.3434C177.448 74.0543 177.714 73.6856 177.878 73.2705C178.075 72.7407 178.172 72.1803 178.166 71.6164C178.176 71.0473 178.079 70.4814 177.878 69.9474C177.714 69.5323 177.448 69.1636 177.103 68.8745C176.799 68.6298 176.417 68.4979 176.024 68.502C175.631 68.4953 175.248 68.6275 174.945 68.8745C174.6 69.1636 174.334 69.5323 174.171 69.9474C173.962 70.4794 173.864 71.0468 173.882 71.6164C173.868 72.1809 173.966 72.7426 174.171 73.2705C174.334 73.6856 174.6 74.0543 174.945 74.3434C175.248 74.5904 175.631 74.7226 176.024 74.7159ZM178.197 76.5786V74.2391V71.5866L178.06 68.949V62.7798H179.731V76.5786H178.197Z" fill="#1B528A"/>
<path d="M185.353 76.6978C184.599 76.7142 183.861 76.4834 183.256 76.0421C182.64 75.5718 182.163 74.9496 181.873 74.2391C181.541 73.4036 181.376 72.5132 181.387 71.6164C181.367 70.7155 181.527 69.8193 181.858 68.9789C182.137 68.2783 182.592 67.6582 183.18 67.1758C183.725 66.754 184.4 66.5279 185.094 66.535C185.771 66.5338 186.429 66.754 186.963 67.1609C187.549 67.6324 187.995 68.2501 188.254 68.949C188.588 69.8149 188.748 70.7358 188.725 71.6611V72.0038C188.725 72.1231 188.725 72.2423 188.725 72.3466H182.77V70.8564H187.859L187.206 71.3333C187.219 70.8249 187.131 70.3188 186.948 69.8431C186.796 69.4504 186.545 69.1018 186.219 68.8298C185.916 68.5828 185.533 68.4506 185.14 68.4573C184.746 68.4479 184.362 68.5804 184.061 68.8298C183.731 69.1046 183.48 69.459 183.332 69.858C183.158 70.3363 183.071 70.8405 183.074 71.3482V71.7207C183.061 72.2609 183.159 72.798 183.362 73.3003C183.532 73.724 183.822 74.0911 184.198 74.3583C184.562 74.61 184.999 74.7406 185.444 74.7308C185.819 74.7336 186.189 74.6466 186.522 74.4775C186.878 74.2814 187.176 73.9992 187.388 73.6579L188.285 75.1481C187.995 75.646 187.575 76.0582 187.067 76.3414C186.559 76.6246 185.982 76.7683 185.398 76.7574L185.353 76.6978Z" fill="#1B528A"/>
<path d="M197.188 76.7574C196.46 76.7653 195.74 76.6179 195.076 76.3253C194.461 76.0682 193.911 75.6815 193.466 75.1927L194.073 73.3152C194.467 73.7431 194.942 74.0922 195.471 74.3434C196.003 74.6104 196.59 74.7532 197.188 74.7606C197.601 74.7717 198.012 74.6901 198.388 74.5222C198.667 74.3946 198.9 74.1867 199.057 73.9261C199.2 73.66 199.273 73.3628 199.269 73.0618C199.283 72.7191 199.176 72.3823 198.965 72.1081C198.752 71.8504 198.475 71.6503 198.16 71.527C197.806 71.3677 197.44 71.2332 197.066 71.1246C196.671 71.0054 196.276 70.8564 195.866 70.6925C195.474 70.5295 195.111 70.3084 194.787 70.0368C194.44 69.7434 194.165 69.3766 193.982 68.9639C193.763 68.4189 193.66 67.8358 193.678 67.2503C193.672 66.5831 193.812 65.9225 194.088 65.3131C194.356 64.7335 194.789 64.242 195.334 63.8974C195.977 63.5247 196.716 63.3435 197.461 63.3759C198.037 63.3719 198.609 63.4729 199.148 63.6739C199.71 63.8475 200.228 64.1371 200.667 64.5233L200.105 66.4009C199.718 66.0778 199.283 65.8164 198.813 65.626C198.397 65.4661 197.954 65.3803 197.507 65.3727C197.101 65.3601 196.699 65.4472 196.337 65.626C196.059 65.764 195.831 65.9825 195.684 66.2519C195.541 66.5289 195.468 66.8355 195.471 67.146C195.457 67.4887 195.565 67.8255 195.775 68.0996C195.984 68.3523 196.256 68.5475 196.565 68.6659L197.659 69.0682L198.874 69.5004C199.265 69.6579 199.629 69.8741 199.953 70.1411C200.304 70.422 200.576 70.7862 200.743 71.1991C200.968 71.7373 201.071 72.3168 201.047 72.8979C201.052 73.5601 200.912 74.2155 200.637 74.8202C200.369 75.3998 199.936 75.8913 199.391 76.2358C198.722 76.6107 197.958 76.7915 197.188 76.7574Z" fill="#1B528A"/>
<path d="M205.939 76.6978C205.189 76.7166 204.456 76.4854 203.858 76.0421C203.233 75.5774 202.749 74.9539 202.46 74.2391C202.127 73.4036 201.962 72.5132 201.974 71.6164C201.961 70.716 202.12 69.8213 202.445 68.9789C202.724 68.2783 203.178 67.6582 203.766 67.1758C204.311 66.754 204.987 66.5279 205.681 66.535C206.362 66.5304 207.026 66.7509 207.565 67.1609C208.147 67.6363 208.592 68.2528 208.856 68.949C209.183 69.8166 209.343 70.7363 209.327 71.6611C209.327 71.7654 209.327 71.8697 209.327 72.0038C209.327 72.138 209.327 72.2423 209.327 72.3466H203.341V70.8564H208.431L207.777 71.3333C207.798 70.8244 207.71 70.3169 207.519 69.8431C207.367 69.4504 207.116 69.1018 206.79 68.8298C206.489 68.5804 206.105 68.4479 205.711 68.4573C205.318 68.4506 204.935 68.5828 204.632 68.8298C204.302 69.1046 204.051 69.459 203.903 69.858C203.73 70.3363 203.642 70.8405 203.645 71.3482V71.7207C203.637 72.2619 203.741 72.799 203.949 73.3003C204.113 73.727 204.404 74.0955 204.784 74.3583C205.142 74.6118 205.574 74.7427 206.015 74.7308C206.395 74.7354 206.771 74.6484 207.109 74.4775C207.456 74.2763 207.748 73.995 207.96 73.6579L208.871 75.1481C208.579 75.643 208.16 76.0541 207.656 76.3402C207.127 76.61 206.534 76.7337 205.939 76.6978Z" fill="#1B528A"/>
<path d="M210.937 76.5786V66.6393H212.457V69.3812L212.274 68.5765C212.443 67.9861 212.8 67.464 213.292 67.0864C213.79 66.7201 214.403 66.5357 215.024 66.5648V68.7702H214.811H214.629C214.331 68.7632 214.037 68.829 213.771 68.9617C213.506 69.0944 213.279 69.2898 213.11 69.5302C212.685 70.2253 212.489 71.0317 212.548 71.8399V76.6531L210.937 76.5786Z" fill="#1B528A"/>
<path d="M218.777 76.5786L215.738 66.6393H217.485L220.144 75.4013H219.278L222.013 66.6393H223.639L220.6 76.5786H218.777Z" fill="#1B528A"/>
<path d="M225.416 65.0002C225.263 65.0024 225.111 64.9667 224.976 64.8964C224.841 64.826 224.725 64.7234 224.641 64.5978C224.444 64.3036 224.339 63.9591 224.339 63.6069C224.339 63.2547 224.444 62.9102 224.641 62.6159C224.725 62.4904 224.841 62.3877 224.976 62.3174C225.111 62.2471 225.263 62.2114 225.416 62.2136C225.567 62.2148 225.716 62.2504 225.85 62.3176C225.984 62.3849 226.101 62.4819 226.191 62.601C226.401 62.8752 226.508 63.212 226.495 63.5547C226.508 63.9205 226.401 64.2808 226.191 64.5829C226.109 64.7122 225.995 64.8186 225.859 64.8917C225.724 64.9649 225.571 65.0022 225.416 65.0002ZM224.565 76.5786V66.6393H226.252V76.5786H224.565Z" fill="#1B528A"/>
<path d="M231.752 76.6978C231.022 76.7113 230.309 76.48 229.731 76.0421C229.12 75.5709 228.648 74.9485 228.364 74.239C228.019 73.4067 227.848 72.5148 227.862 71.6164C227.844 70.7129 228.015 69.8152 228.364 68.9788C228.652 68.2714 229.123 67.65 229.731 67.1758C230.313 66.7484 231.024 66.523 231.752 66.535C232.412 66.5275 233.058 66.7315 233.59 67.1162C234.167 67.5586 234.596 68.1608 234.82 68.8447L233.529 69.8729C233.353 69.4735 233.082 69.1211 232.739 68.8447C232.45 68.6294 232.099 68.5094 231.736 68.502C231.329 68.4974 230.933 68.6288 230.612 68.8745C230.263 69.1595 229.995 69.5295 229.837 69.9474C229.453 71.023 229.453 72.1949 229.837 73.2704C229.995 73.6884 230.263 74.0584 230.612 74.3434C230.918 74.5706 231.292 74.6936 231.676 74.6936C232.06 74.6936 232.433 74.5706 232.739 74.3434C233.082 74.0612 233.353 73.7039 233.529 73.3003L234.82 74.3434C234.584 75.0172 234.157 75.6114 233.59 76.057C233.07 76.4712 232.421 76.6975 231.752 76.6978Z" fill="#1B528A"/>
<path d="M237.008 65.0002C236.855 65.0024 236.704 64.9667 236.568 64.8964C236.433 64.826 236.318 64.7234 236.233 64.5978C236.036 64.3036 235.931 63.9591 235.931 63.6069C235.931 63.2547 236.036 62.9102 236.233 62.6159C236.318 62.4904 236.433 62.3877 236.568 62.3174C236.704 62.2471 236.855 62.2114 237.008 62.2136C237.159 62.2148 237.308 62.2504 237.442 62.3176C237.577 62.3849 237.693 62.4819 237.783 62.601C237.988 62.8771 238.09 63.2138 238.072 63.5547C238.089 63.9189 237.988 64.279 237.783 64.5829C237.702 64.7122 237.588 64.8186 237.452 64.8917C237.316 64.9649 237.163 65.0022 237.008 65.0002ZM236.157 76.5786V66.6393H237.844V76.5786H236.157Z" fill="#1B528A"/>
<path d="M243.313 76.6978C242.602 76.7111 241.908 76.479 241.353 76.0421C240.747 75.57 240.28 74.9475 240.001 74.2391C239.656 73.4067 239.486 72.5148 239.5 71.6164C239.482 70.7129 239.652 69.8152 240.001 68.9789C240.284 68.2725 240.75 67.6509 241.353 67.1758C241.914 66.7518 242.605 66.526 243.313 66.535C244.031 66.5228 244.733 66.7486 245.304 67.1758C245.901 67.6505 246.366 68.2656 246.656 68.9639C247.324 70.6612 247.324 72.5419 246.656 74.2391C246.377 74.9475 245.91 75.57 245.304 76.0421C244.737 76.48 244.034 76.7118 243.313 76.6978ZM243.313 74.7159C243.716 74.7232 244.109 74.5913 244.422 74.3434C244.767 74.0575 245.029 73.6874 245.182 73.2705C245.374 72.7397 245.466 72.1794 245.455 71.6164C245.47 71.0483 245.377 70.4824 245.182 69.9474C245.029 69.5305 244.767 69.1604 244.422 68.8745C244.111 68.6328 243.726 68.5013 243.328 68.5013C242.931 68.5013 242.546 68.6328 242.235 68.8745C241.89 69.1604 241.628 69.5305 241.475 69.9474C241.274 70.4814 241.176 71.0473 241.186 71.6164C241.18 72.1803 241.278 72.7407 241.475 73.2705C241.628 73.6874 241.89 74.0575 242.235 74.3434C242.538 74.5881 242.92 74.72 243.313 74.7159Z" fill="#1B528A"/>
<path d="M250.986 76.6978C250.394 76.6978 249.807 76.5917 249.254 76.3849C248.773 76.2012 248.33 75.9336 247.947 75.5951L248.6 73.8218C248.939 74.1211 249.33 74.3584 249.755 74.5222C250.175 74.7081 250.631 74.8046 251.092 74.8053C251.486 74.834 251.877 74.7287 252.201 74.5073C252.318 74.4117 252.411 74.2905 252.472 74.1533C252.532 74.0161 252.559 73.8668 252.55 73.7175C252.561 73.6019 252.545 73.4854 252.503 73.3769C252.461 73.2684 252.394 73.1708 252.307 73.0917C252.129 72.9359 251.915 72.8235 251.684 72.7638C251.426 72.7638 251.138 72.6148 250.818 72.5552C250.494 72.4917 250.174 72.407 249.861 72.3019C249.546 72.2019 249.252 72.0452 248.995 71.8399C248.723 71.6163 248.506 71.3364 248.357 71.0204C248.176 70.5808 248.093 70.1082 248.114 69.6345C248.102 69.0641 248.238 68.5001 248.509 67.9954C248.759 67.5369 249.139 67.1592 249.603 66.9076C250.119 66.6468 250.694 66.5187 251.274 66.535C251.789 66.533 252.302 66.6084 252.794 66.7585C253.238 66.8844 253.651 67.0973 254.009 67.3844L253.371 69.1577C253.07 68.8937 252.719 68.6911 252.338 68.5616C252.003 68.4613 251.655 68.411 251.305 68.4126C250.904 68.3821 250.505 68.4931 250.18 68.7255C250.057 68.8211 249.959 68.9437 249.893 69.0835C249.827 69.2233 249.795 69.3763 249.801 69.5302C249.79 69.6525 249.807 69.7756 249.848 69.8912C249.89 70.0068 249.957 70.1123 250.044 70.2008C250.227 70.3613 250.445 70.4785 250.682 70.5435C250.964 70.6392 251.254 70.7139 251.548 70.767C251.871 70.8147 252.187 70.8997 252.49 71.0204C252.802 71.121 253.094 71.2721 253.356 71.4674C253.639 71.6733 253.86 71.9517 253.994 72.2721C254.174 72.7067 254.257 73.1742 254.237 73.643C254.254 74.2044 254.118 74.7602 253.842 75.2524C253.584 75.7116 253.193 76.0852 252.718 76.3253C252.18 76.5873 251.585 76.7153 250.986 76.6978Z" fill="#1B528A"/>
<path d="M258.278 76.5786L262.517 63.5547H264.249L268.488 76.5786H266.665L263.018 64.8362H263.717L260.086 76.5786H258.278ZM260.238 73.5983L260.709 71.6909H265.799L266.254 73.5983H260.238Z" fill="#1B528A"/>
<path d="M272.711 76.6978C271.986 76.7115 271.278 76.48 270.706 76.0421C270.091 75.5718 269.613 74.9496 269.323 74.2391C268.979 73.4067 268.808 72.5148 268.822 71.6164C268.804 70.7129 268.974 69.8152 269.323 68.9788C269.62 68.2718 270.096 67.651 270.706 67.1758C271.283 66.7485 271.989 66.5229 272.711 66.535C273.378 66.5242 274.029 66.7284 274.565 67.1162C275.138 67.5595 275.562 68.1618 275.78 68.8447L274.489 69.8729C274.323 69.4675 274.051 69.1126 273.699 68.8447C273.413 68.6246 273.06 68.5041 272.696 68.502C272.294 68.4972 271.902 68.6288 271.587 68.8745C271.233 69.155 270.964 69.5264 270.812 69.9474C270.428 71.023 270.428 72.1949 270.812 73.2705C270.964 73.6915 271.233 74.0629 271.587 74.3434C271.902 74.5891 272.294 74.7207 272.696 74.7159C273.057 74.7118 273.408 74.5972 273.699 74.3881C274.051 74.1141 274.323 73.7545 274.489 73.345L275.78 74.3881C275.549 75.0609 275.128 75.6552 274.565 76.1017C274.034 76.501 273.38 76.7112 272.711 76.6978Z" fill="#1B528A"/>
<path d="M279.396 76.6978C278.898 76.7129 278.407 76.5782 277.989 76.3119C277.57 76.0456 277.245 75.6603 277.057 75.2076C276.833 74.7415 276.719 74.2324 276.722 73.7175C276.713 73.2066 276.811 72.6993 277.011 72.2273C277.205 71.7823 277.541 71.4111 277.968 71.1693C278.5 70.8763 279.106 70.7369 279.715 70.767H281.797V72.2571H279.837C279.625 72.2318 279.409 72.2534 279.207 72.3204C279.005 72.3875 278.82 72.4983 278.667 72.6446C278.473 72.92 278.372 73.2485 278.378 73.5834C278.36 73.9504 278.491 74.3095 278.743 74.5818C278.874 74.7099 279.031 74.8094 279.204 74.8736C279.376 74.9378 279.561 74.9653 279.746 74.9543C280.15 74.9561 280.543 74.8191 280.855 74.5669C281.208 74.2601 281.458 73.8545 281.569 73.4046L281.842 74.8053C281.718 75.3403 281.413 75.8182 280.976 76.1613C280.532 76.5189 279.971 76.7091 279.396 76.6978ZM281.66 76.5786V74.5073L281.569 74.0751V70.618C281.601 70.0585 281.446 69.504 281.128 69.0384C280.97 68.8395 280.763 68.6832 280.527 68.5842C280.29 68.4852 280.032 68.4466 279.776 68.4722C279.363 68.4723 278.955 68.5602 278.58 68.73C278.205 68.8998 277.872 69.1474 277.603 69.4557L276.935 67.7569C277.323 67.3553 277.795 67.0402 278.318 66.833C278.847 66.6382 279.408 66.5372 279.974 66.535C280.43 66.5086 280.887 66.5879 281.306 66.7665C281.726 66.9451 282.097 67.218 282.389 67.5632C283.039 68.4986 283.345 69.6235 283.255 70.7521V76.5786H281.66Z" fill="#1B528A"/>
<path d="M288.451 76.6978C287.776 76.7034 287.12 76.4767 286.598 76.057C286.007 75.5925 285.555 74.9797 285.291 74.2838C284.663 72.5538 284.663 70.6641 285.291 68.9341C285.559 68.2403 286.01 67.6284 286.598 67.1609C287.125 66.7509 287.779 66.5301 288.451 66.535C289.038 66.526 289.608 66.7213 290.062 67.0864C290.599 67.5158 290.995 68.0912 291.201 68.7404C291.503 69.6694 291.641 70.6419 291.611 71.6164C291.637 72.5798 291.503 73.5409 291.216 74.4626C291.011 75.1168 290.621 75.7007 290.092 76.1465C289.628 76.5136 289.047 76.7088 288.451 76.6978ZM288.664 74.7159C289.057 74.72 289.439 74.5881 289.742 74.3434C290.088 74.0575 290.35 73.6874 290.502 73.2705C290.706 72.7426 290.805 72.1809 290.791 71.6164C290.808 71.0468 290.71 70.4795 290.502 69.9474C290.35 69.5305 290.088 69.1604 289.742 68.8745C289.434 68.634 289.051 68.5031 288.656 68.5031C288.262 68.5031 287.879 68.634 287.57 68.8745C287.225 69.1604 286.963 69.5305 286.81 69.9474C286.602 70.4795 286.504 71.0468 286.522 71.6164C286.508 72.1809 286.606 72.7426 286.81 73.2705C286.963 73.6874 287.225 74.0575 287.57 74.3434C287.878 74.5903 288.266 74.7223 288.664 74.7159ZM290.836 76.5786V74.2391V71.5866L290.715 68.949V62.7798H292.371V76.5786H290.836Z" fill="#1B528A"/>
<path d="M298.038 76.6978C297.283 76.7188 296.544 76.4876 295.941 76.0421C295.321 75.5759 294.843 74.9524 294.559 74.239C294.219 73.4057 294.054 72.5137 294.073 71.6164C294.052 70.7154 294.212 69.8193 294.544 68.9788C294.822 68.2783 295.277 67.6582 295.865 67.1757C296.41 66.754 297.086 66.5279 297.78 66.535C298.456 66.5337 299.114 66.754 299.648 67.1608C300.23 67.6363 300.676 68.2527 300.94 68.949C301.273 69.8148 301.433 70.7357 301.411 71.6611V72.0038C301.411 72.123 301.411 72.2422 301.411 72.3465H295.425V70.8564H300.53L299.861 71.3333C299.878 70.8258 299.796 70.3199 299.618 69.8431C299.466 69.4465 299.209 69.0967 298.874 68.8298C298.571 68.589 298.192 68.4577 297.802 68.4577C297.412 68.4577 297.034 68.589 296.731 68.8298C296.392 69.0962 296.139 69.4534 296.002 69.858C295.822 70.3345 295.734 70.84 295.744 71.3482V71.7207C295.731 72.2608 295.829 72.798 296.032 73.3002C296.197 73.727 296.488 74.0955 296.868 74.3583C297.227 74.6079 297.658 74.7384 298.099 74.7308C298.479 74.7354 298.855 74.6484 299.193 74.4775C299.542 74.2732 299.838 73.9927 300.059 73.6579L300.955 75.148C300.663 75.643 300.244 76.054 299.74 76.3401C299.217 76.6102 298.628 76.734 298.038 76.6978ZM296.61 65.2833L298.418 62.7351H300.408L298.068 65.2833H296.61Z" fill="#1B528A"/>
<path d="M312.091 66.535C312.635 66.5284 313.166 66.69 313.611 66.9969C314.104 67.3772 314.464 67.8977 314.644 68.4871C314.926 69.2761 315.055 70.1101 315.024 70.9458V76.6382H313.337V71.1842C313.383 70.5044 313.241 69.825 312.927 69.2172C312.807 69.0105 312.632 68.8401 312.421 68.7244C312.209 68.6088 311.969 68.5525 311.727 68.5616C311.374 68.5567 311.03 68.6726 310.754 68.8894C310.444 69.1486 310.218 69.4901 310.101 69.8729C309.949 70.4107 309.892 70.9703 309.934 71.527V76.5786H308.248V71.1842C308.293 70.5044 308.151 69.825 307.837 69.2172C307.718 69.0105 307.543 68.8401 307.331 68.7244C307.119 68.6088 306.879 68.5525 306.637 68.5616C306.284 68.5567 305.94 68.6726 305.665 68.8894C305.354 69.151 305.123 69.4912 304.996 69.8729C304.832 70.409 304.755 70.9673 304.768 71.527V76.5786H303.082V66.6393H304.692V69.2917L304.404 68.502C304.591 67.9087 304.963 67.3877 305.467 67.0118C305.904 66.6852 306.437 66.5073 306.987 66.5052C307.639 66.4977 308.267 66.7442 308.734 67.1906C309.292 67.7578 309.64 68.4925 309.721 69.2768L309.068 68.9639C309.268 68.2705 309.669 67.6492 310.223 67.1757C310.747 66.7493 311.41 66.5219 312.091 66.535Z" fill="#1B528A"/>
<path d="M318.047 65.0002C317.894 65.0024 317.742 64.9667 317.607 64.8964C317.471 64.826 317.356 64.7234 317.272 64.5978C317.075 64.3036 316.969 63.9591 316.969 63.6069C316.969 63.2547 317.075 62.9102 317.272 62.6159C317.356 62.4904 317.471 62.3877 317.607 62.3174C317.742 62.2471 317.894 62.2114 318.047 62.2136C318.196 62.2135 318.343 62.2487 318.475 62.3161C318.607 62.3836 318.721 62.4813 318.806 62.601C319.017 62.8752 319.124 63.212 319.11 63.5547C319.128 63.9189 319.027 64.279 318.822 64.5829C318.74 64.7122 318.626 64.8186 318.49 64.8917C318.355 64.9649 318.202 65.0022 318.047 65.0002ZM317.196 76.5786V66.6393H318.867V76.5786H317.196Z" fill="#1B528A"/>
<path d="M324.382 76.6978C323.652 76.7113 322.939 76.48 322.362 76.0421C321.751 75.5669 321.275 74.9461 320.979 74.239C320.647 73.4036 320.482 72.5131 320.493 71.6164C320.477 70.7145 320.642 69.8183 320.979 68.9788C321.278 68.2734 321.754 67.6533 322.362 67.1758C322.944 66.7484 323.655 66.523 324.382 66.535C325.043 66.5275 325.689 66.7315 326.221 67.1162C326.798 67.5586 327.227 68.1608 327.451 68.8447L326.145 69.8729C325.979 69.4718 325.712 69.1182 325.37 68.8447C325.081 68.6294 324.73 68.5094 324.367 68.502C323.96 68.4974 323.564 68.6288 323.243 68.8745C322.888 69.155 322.62 69.5264 322.468 69.9474C322.084 71.023 322.084 72.1949 322.468 73.2704C322.62 73.6915 322.888 74.0629 323.243 74.3434C323.549 74.5706 323.922 74.6936 324.306 74.6936C324.69 74.6936 325.064 74.5706 325.37 74.3434C325.712 74.064 325.978 73.7055 326.145 73.3003L327.451 74.3434C327.214 75.0172 326.788 75.6114 326.221 76.057C325.701 76.4712 325.052 76.6975 324.382 76.6978Z" fill="#1B528A"/>
<path d="M332.024 76.6978C331.308 76.7146 330.608 76.4823 330.049 76.0421C329.45 75.5633 328.985 74.9428 328.697 74.2391C328.352 73.4067 328.182 72.5148 328.196 71.6164C328.177 70.7129 328.348 69.8152 328.697 68.9789C328.991 68.2785 329.455 67.6594 330.049 67.1758C330.62 66.7597 331.313 66.535 332.024 66.535C332.736 66.535 333.428 66.7597 333.999 67.1758C334.599 67.6518 335.069 68.2662 335.367 68.964C336.014 70.665 336.014 72.538 335.367 74.2391C335.075 74.9445 334.604 75.5651 333.999 76.0421C333.44 76.4823 332.741 76.7146 332.024 76.6978ZM332.024 74.7159C332.422 74.7223 332.81 74.5903 333.118 74.3434C333.463 74.0575 333.725 73.6874 333.878 73.2705C334.069 72.7397 334.162 72.1794 334.151 71.6164C334.166 71.0483 334.073 70.4824 333.878 69.9474C333.725 69.5305 333.463 69.1604 333.118 68.8745C332.814 68.6298 332.432 68.4979 332.039 68.502C331.636 68.4934 331.243 68.6254 330.93 68.8745C330.59 69.1645 330.329 69.5333 330.171 69.9474C329.975 70.4824 329.883 71.0483 329.897 71.6164C329.887 72.1794 329.979 72.7397 330.171 73.2705C330.329 73.6846 330.59 74.0534 330.93 74.3434C331.239 74.5903 331.626 74.7223 332.024 74.7159Z" fill="#1B528A"/>
<path d="M339.681 76.6978C339.094 76.6994 338.512 76.5932 337.965 76.3849C337.48 76.201 337.032 75.9336 336.643 75.5951L337.296 73.8218C337.635 74.1211 338.026 74.3584 338.451 74.5222C338.871 74.7081 339.327 74.8046 339.788 74.8053C340.197 74.8447 340.606 74.7389 340.942 74.5073C341.062 74.4125 341.157 74.2917 341.22 74.1547C341.283 74.0176 341.313 73.8679 341.307 73.7175C341.315 73.6022 341.297 73.4866 341.255 73.3786C341.213 73.2706 341.148 73.1727 341.064 73.0917C340.88 72.9361 340.661 72.824 340.426 72.7638C340.168 72.7638 339.879 72.6148 339.56 72.5552C339.235 72.4917 338.916 72.4071 338.603 72.3019C338.287 72.2019 337.994 72.0452 337.737 71.8399C337.465 71.6163 337.247 71.3364 337.099 71.0204C336.924 70.5789 336.842 70.1077 336.856 69.6345C336.844 69.0641 336.979 68.5001 337.251 67.9954C337.501 67.5369 337.881 67.1592 338.344 66.9076C338.86 66.6468 339.435 66.5187 340.016 66.535C340.531 66.5318 341.043 66.6072 341.535 66.7585C341.982 66.8877 342.4 67.1002 342.766 67.3844L342.112 69.1577C341.813 68.8913 341.462 68.6884 341.079 68.5616C340.75 68.4612 340.406 68.4109 340.061 68.4126C339.655 68.3799 339.251 68.4909 338.922 68.7255C338.801 68.8234 338.705 68.9464 338.639 69.0856C338.573 69.2249 338.54 69.3768 338.542 69.5302C338.534 69.6523 338.552 69.7746 338.594 69.8898C338.636 70.005 338.701 70.1108 338.785 70.2008C338.968 70.3613 339.187 70.4785 339.423 70.5435C339.706 70.6392 339.995 70.714 340.289 70.767C340.617 70.8171 340.938 70.902 341.246 71.0204C341.555 71.1275 341.847 71.2781 342.112 71.4674C342.387 71.6819 342.606 71.9578 342.75 72.2721C342.923 72.7087 343.006 73.1747 342.993 73.643C343.004 74.2037 342.868 74.7577 342.598 75.2524C342.336 75.7084 341.946 76.0809 341.474 76.3253C340.918 76.5965 340.302 76.7247 339.681 76.6978Z" fill="#1B528A"/>
</svg>
